<svg width="32" height="32" viewBox="0 0 32 32" fill="none" xmlns="http://www.w3.org/2000/svg">
  <!-- Background circle -->
  <circle cx="16" cy="16" r="15" fill="#2563eb" stroke="#1d4ed8" stroke-width="2"/>
  
  <!-- Graduation cap -->
  <path d="M16 8L24 12L16 16L8 12L16 8Z" fill="#ffffff"/>
  <path d="M24 12V18C24 19.1046 20.4183 22 16 22C11.5817 22 8 19.1046 8 18V12" stroke="#ffffff" stroke-width="1.5" stroke-linecap="round"/>
  
  <!-- Success star -->
  <path d="M26 10L27 12L29 12L27.5 13.5L28 16L26 15L24 16L24.5 13.5L23 12L25 12L26 10Z" fill="#fbbf24"/>
  
  <!-- Path/Arrow indicating progress -->
  <path d="M6 24L10 20" stroke="#fbbf24" stroke-width="2" stroke-linecap="round"/>
  <path d="M8 24L10 22L12 24" stroke="#fbbf24" stroke-width="1.5" stroke-linecap="round" stroke-linejoin="round"/>
</svg> 